<svg width="300" height="299" viewBox="0 0 300 299" fill="none" xmlns="http://www.w3.org/2000/svg">
<rect width="300" height="299" fill="#1E1E1E"/>
<path d="M2.25665 180.078L39.8347 39.8348L180.078 2.25669L282.743 104.922L245.165 245.165L104.922 282.743L2.25665 180.078Z" stroke="#FAF9F6" stroke-width="4"/>
<path d="M296.84 118.018L259.262 258.262L119.018 295.84L16.3532 193.175L53.9313 52.9313L194.175 15.3532L296.84 118.018Z" stroke="#FAF9F6" stroke-width="4"/>
<mask id="path-3-outside-1_0_1" maskUnits="userSpaceOnUse" x="52" y="58" width="113" height="146" fill="black">
<rect fill="white" x="52" y="58" width="113" height="146"/>
<path d="M118.481 199.407C113.944 199.407 110.07 199.075 106.86 198.411C103.651 197.747 100.662 196.668 97.8955 195.174C95.1839 193.68 92.2786 191.743 89.1797 189.363L86.2744 197H59.4629V156.575H86.1084C87.8239 161.224 90.4525 164.516 93.9941 166.453C97.5911 168.335 101.991 169.275 107.192 169.275C110.402 169.275 113.141 168.639 115.41 167.366C117.679 166.038 118.813 164.295 118.813 162.137C118.813 159.425 117.651 157.405 115.327 156.077C113.003 154.694 109.738 153.421 105.532 152.259C100.164 150.82 95.2946 149.298 90.9229 147.693C86.6064 146.089 82.7327 144.428 79.3018 142.713C72.4398 139.282 66.9059 134.412 62.7002 128.104C58.4945 121.795 56.3916 113.411 56.3916 102.952C56.3916 94.9281 58.1348 87.8447 61.6211 81.7021C65.0521 75.6149 69.9772 70.8835 76.3965 67.5078C82.8711 64.0768 90.4801 62.3613 99.2236 62.3613C109.904 62.3613 118.343 65.7646 124.541 72.5713L128.774 64.7686H152.598V104.363H127.114C124.735 99.3828 122.106 95.9242 119.229 93.9873C116.351 92.0505 112.394 91.082 107.358 91.082C103.54 91.082 100.579 91.7738 98.4766 93.1572C96.3737 94.4854 95.3223 96.3392 95.3223 98.7188C95.3223 101.375 96.8441 103.395 99.8877 104.778C102.876 106.217 107.137 107.545 112.671 108.763C122.355 110.976 130.711 113.771 137.739 117.146C144.601 120.522 150.08 125.309 154.175 131.507C158.325 137.649 160.4 145.59 160.4 155.33C160.4 163.576 158.685 171.046 155.254 177.742C151.768 184.438 146.815 189.723 140.396 193.597C134.032 197.47 126.727 199.407 118.481 199.407Z"/>
</mask>
<path d="M118.481 199.407C113.944 199.407 110.07 199.075 106.86 198.411C103.651 197.747 100.662 196.668 97.8955 195.174C95.1839 193.68 92.2786 191.743 89.1797 189.363L86.2744 197H59.4629V156.575H86.1084C87.8239 161.224 90.4525 164.516 93.9941 166.453C97.5911 168.335 101.991 169.275 107.192 169.275C110.402 169.275 113.141 168.639 115.41 167.366C117.679 166.038 118.813 164.295 118.813 162.137C118.813 159.425 117.651 157.405 115.327 156.077C113.003 154.694 109.738 153.421 105.532 152.259C100.164 150.82 95.2946 149.298 90.9229 147.693C86.6064 146.089 82.7327 144.428 79.3018 142.713C72.4398 139.282 66.9059 134.412 62.7002 128.104C58.4945 121.795 56.3916 113.411 56.3916 102.952C56.3916 94.9281 58.1348 87.8447 61.6211 81.7021C65.0521 75.6149 69.9772 70.8835 76.3965 67.5078C82.8711 64.0768 90.4801 62.3613 99.2236 62.3613C109.904 62.3613 118.343 65.7646 124.541 72.5713L128.774 64.7686H152.598V104.363H127.114C124.735 99.3828 122.106 95.9242 119.229 93.9873C116.351 92.0505 112.394 91.082 107.358 91.082C103.54 91.082 100.579 91.7738 98.4766 93.1572C96.3737 94.4854 95.3223 96.3392 95.3223 98.7188C95.3223 101.375 96.8441 103.395 99.8877 104.778C102.876 106.217 107.137 107.545 112.671 108.763C122.355 110.976 130.711 113.771 137.739 117.146C144.601 120.522 150.08 125.309 154.175 131.507C158.325 137.649 160.4 145.59 160.4 155.33C160.4 163.576 158.685 171.046 155.254 177.742C151.768 184.438 146.815 189.723 140.396 193.597C134.032 197.47 126.727 199.407 118.481 199.407Z" fill="#FAF9F6"/>
<path d="M118.481 199.407C113.944 199.407 110.07 199.075 106.86 198.411C103.651 197.747 100.662 196.668 97.8955 195.174C95.1839 193.68 92.2786 191.743 89.1797 189.363L86.2744 197H59.4629V156.575H86.1084C87.8239 161.224 90.4525 164.516 93.9941 166.453C97.5911 168.335 101.991 169.275 107.192 169.275C110.402 169.275 113.141 168.639 115.41 167.366C117.679 166.038 118.813 164.295 118.813 162.137C118.813 159.425 117.651 157.405 115.327 156.077C113.003 154.694 109.738 153.421 105.532 152.259C100.164 150.82 95.2946 149.298 90.9229 147.693C86.6064 146.089 82.7327 144.428 79.3018 142.713C72.4398 139.282 66.9059 134.412 62.7002 128.104C58.4945 121.795 56.3916 113.411 56.3916 102.952C56.3916 94.9281 58.1348 87.8447 61.6211 81.7021C65.0521 75.6149 69.9772 70.8835 76.3965 67.5078C82.8711 64.0768 90.4801 62.3613 99.2236 62.3613C109.904 62.3613 118.343 65.7646 124.541 72.5713L128.774 64.7686H152.598V104.363H127.114C124.735 99.3828 122.106 95.9242 119.229 93.9873C116.351 92.0505 112.394 91.082 107.358 91.082C103.54 91.082 100.579 91.7738 98.4766 93.1572C96.3737 94.4854 95.3223 96.3392 95.3223 98.7188C95.3223 101.375 96.8441 103.395 99.8877 104.778C102.876 106.217 107.137 107.545 112.671 108.763C122.355 110.976 130.711 113.771 137.739 117.146C144.601 120.522 150.08 125.309 154.175 131.507C158.325 137.649 160.4 145.59 160.4 155.33C160.4 163.576 158.685 171.046 155.254 177.742C151.768 184.438 146.815 189.723 140.396 193.597C134.032 197.47 126.727 199.407 118.481 199.407Z" fill="black" fill-opacity="0.2"/>
<path d="M97.8955 195.174L95.9651 198.677L95.98 198.685L95.9949 198.693L97.8955 195.174ZM89.1797 189.363L91.6158 186.191L87.3524 182.917L85.4411 187.941L89.1797 189.363ZM86.2744 197V201H89.0324L90.013 198.422L86.2744 197ZM59.4629 197H55.4629V201H59.4629V197ZM59.4629 156.575V152.575H55.4629V156.575H59.4629ZM86.1084 156.575L89.861 155.19L88.8959 152.575H86.1084V156.575ZM93.9941 166.453L92.0749 169.963L92.1074 169.98L92.1402 169.998L93.9941 166.453ZM115.41 167.366L117.367 170.855L117.399 170.837L117.431 170.818L115.41 167.366ZM115.327 156.077L113.281 159.514L113.312 159.532L113.343 159.55L115.327 156.077ZM105.532 152.259L106.598 148.403L106.583 148.399L106.568 148.395L105.532 152.259ZM90.9229 147.693L89.5289 151.443L89.5367 151.445L89.5444 151.448L90.9229 147.693ZM61.6211 81.7021L65.0999 83.6766L65.1057 83.6662L61.6211 81.7021ZM76.3965 67.5078L78.2582 71.0482L78.2694 71.0422L76.3965 67.5078ZM124.541 72.5713L121.583 75.2644L125.373 79.4259L128.057 74.4788L124.541 72.5713ZM128.774 64.7686V60.7686H126.394L125.259 62.861L128.774 64.7686ZM152.598 64.7686H156.598V60.7686H152.598V64.7686ZM152.598 104.363V108.363H156.598V104.363H152.598ZM127.114 104.363L123.505 106.088L124.592 108.363H127.114V104.363ZM98.4766 93.1572L100.613 96.5392L100.644 96.5193L100.675 96.4989L98.4766 93.1572ZM99.8877 104.778L101.623 101.174L101.583 101.155L101.543 101.137L99.8877 104.778ZM112.671 108.763L113.562 104.863L113.546 104.86L113.53 104.856L112.671 108.763ZM137.739 117.146L139.505 113.557L139.488 113.549L139.471 113.541L137.739 117.146ZM154.175 131.507L150.837 133.712L150.849 133.729L150.86 133.746L154.175 131.507ZM155.254 177.742L158.802 179.589L158.808 179.578L158.814 179.566L155.254 177.742ZM140.396 193.597L138.329 190.172L138.322 190.176L138.316 190.18L140.396 193.597ZM118.481 195.407C114.12 195.407 110.534 195.087 107.671 194.494L106.05 202.328C109.606 203.064 113.767 203.407 118.481 203.407V195.407ZM107.671 194.494C104.826 193.905 102.207 192.956 99.7961 191.654L95.9949 198.693C99.1182 200.38 102.476 201.589 106.05 202.328L107.671 194.494ZM99.8259 191.67C97.3297 190.295 94.5941 188.478 91.6158 186.191L86.7436 192.536C89.9631 195.008 93.0381 197.064 95.9651 198.677L99.8259 191.67ZM85.4411 187.941L82.5358 195.578L90.013 198.422L92.9183 190.786L85.4411 187.941ZM86.2744 193H59.4629V201H86.2744V193ZM63.4629 197V156.575H55.4629V197H63.4629ZM59.4629 160.575H86.1084V152.575H59.4629V160.575ZM82.3558 157.96C84.3266 163.3 87.5043 167.463 92.0749 169.963L95.9134 162.944C93.4006 161.569 91.3212 159.147 89.861 155.19L82.3558 157.96ZM92.1402 169.998C96.4477 172.251 101.522 173.275 107.192 173.275V165.275C102.46 165.275 98.7346 164.419 95.8481 162.909L92.1402 169.998ZM107.192 173.275C110.929 173.275 114.376 172.533 117.367 170.855L113.453 163.878C111.907 164.745 109.875 165.275 107.192 165.275V173.275ZM117.431 170.818C120.612 168.956 122.813 166.045 122.813 162.137H114.813C114.813 162.545 114.746 163.12 113.389 163.914L117.431 170.818ZM122.813 162.137C122.813 158.013 120.902 154.656 117.312 152.604L113.343 159.55C114.401 160.155 114.813 160.837 114.813 162.137H122.813ZM117.373 152.64C114.613 150.997 110.965 149.61 106.598 148.403L104.467 156.114C108.511 157.232 111.392 158.39 113.281 159.514L117.373 152.64ZM106.568 148.395C101.294 146.982 96.5414 145.495 92.3013 143.938L89.5444 151.448C94.0478 153.101 99.0343 154.658 104.497 156.122L106.568 148.395ZM92.3168 143.944C88.1093 142.38 84.3708 140.775 81.0906 139.135L77.5129 146.291C81.0947 148.082 85.1036 149.797 89.5289 151.443L92.3168 143.944ZM81.0906 139.135C74.8435 136.012 69.8432 131.607 66.0284 125.885L59.372 130.322C63.9686 137.217 70.0361 142.552 77.5129 146.291L81.0906 139.135ZM66.0284 125.885C62.3979 120.439 60.3916 112.912 60.3916 102.952H52.3916C52.3916 113.911 54.591 123.151 59.372 130.322L66.0284 125.885ZM60.3916 102.952C60.3916 95.5245 61.9995 89.1391 65.0998 83.6766L58.1424 79.7277C54.27 86.5504 52.3916 94.3316 52.3916 102.952H60.3916ZM65.1057 83.6662C68.1438 78.276 72.493 74.0798 78.2582 71.0481L74.5348 63.9675C67.4614 67.6871 61.9603 72.9539 58.1365 79.7381L65.1057 83.6662ZM78.2694 71.0422C84.0654 67.9708 91.0075 66.3613 99.2236 66.3613V58.3613C89.9528 58.3613 81.6768 60.1828 74.5235 63.9734L78.2694 71.0422ZM99.2236 66.3613C108.976 66.3613 116.267 69.4261 121.583 75.2644L127.499 69.8782C120.419 62.1031 110.832 58.3613 99.2236 58.3613V66.3613ZM128.057 74.4788L132.29 66.6761L125.259 62.861L121.025 70.6637L128.057 74.4788ZM128.774 68.7686H152.598V60.7686H128.774V68.7686ZM148.598 64.7686V104.363H156.598V64.7686H148.598ZM152.598 100.363H127.114V108.363H152.598V100.363ZM130.723 102.639C128.201 97.359 125.185 93.1747 121.462 90.669L116.995 97.3057C119.027 98.6737 121.269 101.407 123.505 106.088L130.723 102.639ZM121.462 90.669C117.688 88.1291 112.848 87.082 107.358 87.082V95.082C111.94 95.082 115.013 95.9719 116.995 97.3057L121.462 90.669ZM107.358 87.082C103.135 87.082 99.29 87.8341 96.2781 89.8156L100.675 96.4989C101.869 95.7135 103.945 95.082 107.358 95.082V87.082ZM96.3406 89.7753C93.1408 91.7962 91.3223 94.8934 91.3223 98.7188H99.3223C99.3223 97.785 99.6066 97.1745 100.613 96.5392L96.3406 89.7753ZM91.3223 98.7188C91.3223 100.869 91.9579 102.893 93.2689 104.633C94.5405 106.321 96.2914 107.537 98.2325 108.42L101.543 101.137C100.44 100.636 99.9085 100.151 99.6584 99.8188C99.4475 99.539 99.3223 99.2251 99.3223 98.7188H91.3223ZM98.1524 108.382C101.548 110.017 106.156 111.425 111.811 112.669L113.53 104.856C108.118 103.665 104.204 102.417 101.623 101.174L98.1524 108.382ZM111.78 112.662C121.248 114.826 129.309 117.535 136.007 120.752L139.471 113.541C132.113 110.007 123.462 107.126 113.562 104.863L111.78 112.662ZM135.974 120.736C142.218 123.807 147.146 128.125 150.837 133.712L157.512 129.302C153.014 122.493 146.985 117.237 139.505 113.557L135.974 120.736ZM150.86 133.746C154.443 139.049 156.4 146.142 156.4 155.33H164.4C164.4 145.039 162.207 136.25 157.489 129.267L150.86 133.746ZM156.4 155.33C156.4 163.003 154.809 169.839 151.694 175.918L158.814 179.566C162.561 172.253 164.4 164.148 164.4 155.33H156.4ZM151.706 175.895C148.557 181.944 144.114 186.681 138.329 190.172L142.462 197.021C149.515 192.765 154.979 186.933 158.802 179.589L151.706 175.895ZM138.316 190.18C132.644 193.632 126.074 195.407 118.481 195.407V203.407C127.38 203.407 135.419 201.308 142.475 197.013L138.316 190.18Z" fill="#FAF9F6" mask="url(#path-3-outside-1_0_1)"/>
<mask id="path-5-outside-2_0_1" maskUnits="userSpaceOnUse" x="163" y="91" width="78" height="141" fill="black">
<rect fill="white" x="163" y="91" width="78" height="141"/>
<path d="M236.688 198.781V228H167.708V198.781H180.989V125.153H167.708V95.9346H236.688V125.153H223.489V198.781H236.688Z"/>
</mask>
<path d="M236.688 198.781V228H167.708V198.781H180.989V125.153H167.708V95.9346H236.688V125.153H223.489V198.781H236.688Z" fill="#FAF9F6"/>
<path d="M236.688 198.781V228H167.708V198.781H180.989V125.153H167.708V95.9346H236.688V125.153H223.489V198.781H236.688Z" fill="black" fill-opacity="0.2"/>
<path d="M236.688 198.781H240.688V194.781H236.688V198.781ZM236.688 228V232H240.688V228H236.688ZM167.708 228H163.708V232H167.708V228ZM167.708 198.781V194.781H163.708V198.781H167.708ZM180.989 198.781V202.781H184.989V198.781H180.989ZM180.989 125.153H184.989V121.153H180.989V125.153ZM167.708 125.153H163.708V129.153H167.708V125.153ZM167.708 95.9346V91.9346H163.708V95.9346H167.708ZM236.688 95.9346H240.688V91.9346H236.688V95.9346ZM236.688 125.153V129.153H240.688V125.153H236.688ZM223.489 125.153V121.153H219.489V125.153H223.489ZM223.489 198.781H219.489V202.781H223.489V198.781ZM232.688 198.781V228H240.688V198.781H232.688ZM236.688 224H167.708V232H236.688V224ZM171.708 228V198.781H163.708V228H171.708ZM167.708 202.781H180.989V194.781H167.708V202.781ZM184.989 198.781V125.153H176.989V198.781H184.989ZM180.989 121.153H167.708V129.153H180.989V121.153ZM171.708 125.153V95.9346H163.708V125.153H171.708ZM167.708 99.9346H236.688V91.9346H167.708V99.9346ZM232.688 95.9346V125.153H240.688V95.9346H232.688ZM236.688 121.153H223.489V129.153H236.688V121.153ZM219.489 125.153V198.781H227.489V125.153H219.489ZM223.489 202.781H236.688V194.781H223.489V202.781Z" fill="#FAF9F6" mask="url(#path-5-outside-2_0_1)"/>
</svg>
