<?xml version="1.0" encoding="utf-8" ?>
<svg xmlns="http://www.w3.org/2000/svg" xmlns:xlink="http://www.w3.org/1999/xlink" width="500" height="500">
	<path d="M-0 -0L500 0L500 500L-0 500L0 -0ZM243.295 143.363C214.011 144.647 185.644 159.272 166 180.707C150.578 197.535 140.574 219.428 137.596 242.043C136.664 249.127 136.723 256.598 137.054 263.723C137.995 284.015 145.317 303.857 156.665 320.582C160.953 326.902 165.927 333.231 171.588 338.397C177.496 343.787 183.721 348.812 190.524 353.035C209.947 365.091 232.54 370.938 255.346 369.812L257.562 369.695C288.11 367.618 316.061 353.718 336.215 330.64C349.641 315.266 358.864 295.688 362.09 275.523C363.631 265.895 363.704 255.595 363.027 245.87C362.582 239.466 361.278 233.156 359.599 226.972C353.6 204.868 340.968 184.885 323.627 169.914C319.475 166.33 314.835 163.202 310.175 160.324C292.914 149.661 273.235 143.413 252.893 143.185C249.853 143.151 246.413 142.974 243.414 143.331L243.295 143.363Z"/>
	<path fill="#FEFEFE" d="M101.198 391.236L111.223 391.242L111.23 414.978L101.217 414.996L101.198 391.236Z"/>
	<path fill="#FEFEFE" d="M242.798 391.248L252.797 391.244C253.222 391.984 252.924 412.577 252.929 414.976L242.818 414.987L242.798 391.248Z"/>
	<path fill="#FEFEFE" d="M211.991 391.245L221.982 391.246L221.646 406.392C221.299 408.986 220.028 411.309 217.905 412.875C214.014 415.744 207.287 415.989 202.665 415.333L202.25 415.269C200.474 415.003 198.836 414.522 197.174 413.856C194.461 412.278 192.837 410.402 192.01 407.357L191.921 407.019C191.589 405.79 191.517 404.583 191.429 403.318C192.313 402.756 199.762 403.109 201.296 403.122C201.592 404.621 201.789 406.549 202.821 407.75C203.506 408.548 205.373 409.035 206.423 409.058C207.884 409.089 209.572 408.802 210.625 407.687C211.323 406.948 211.579 405.839 211.739 404.87C212.454 400.551 212.006 395.632 211.991 391.245Z"/>
	<path fill="#FEFEFE" d="M428.26 391.241L438.273 391.248L438.283 400.868C438.26 403.459 438.347 406.415 437.299 408.85C436.273 411.233 434.344 413.139 431.932 414.102C426.382 416.316 418.905 416.097 413.412 413.844C412.733 413.48 412.062 413.107 411.477 412.602C408.584 410.102 407.964 406.815 407.65 403.193L417.637 403.092C417.72 404.604 418.048 406.438 419.064 407.625C419.865 408.561 421.408 409.007 422.592 409.05C423.997 409.102 425.813 408.837 426.824 407.746C428.546 405.888 428.244 402.41 428.255 400.059L428.26 391.241Z"/>
	<path fill="#FEFEFE" d="M441.25 391.242L451.263 391.245C451.261 394.398 450.506 405.133 452.318 407.375C453.215 408.484 454.789 409.014 456.176 409.048C457.591 409.083 459.307 408.779 460.348 407.72C461.972 406.068 461.687 402.684 461.698 400.525L461.7 391.246L471.755 391.241L471.753 397.625L471.607 405.457C471.316 408.227 470.113 410.976 467.875 412.713C464.057 415.676 457.263 416.018 452.635 415.356L452.25 415.296C449.34 414.862 446.276 414.079 444.182 411.867C440.956 408.458 441.232 403.91 441.232 399.565L441.25 391.242Z"/>
	<path fill="#FEFEFE" d="M165.59 391.217L175.077 391.217L190.083 414.605L190.279 414.864L179.939 414.969C179.402 413.947 178.732 412.213 177.954 411.412C177.657 411.105 175.565 411.21 175.029 411.194C171.061 411.195 166.583 410.769 162.679 411.293L160.75 414.978L150.472 414.994L165.59 391.217Z"/>
	<path d="M170.35 398.375C170.896 398.631 171.331 399.722 171.618 400.251L174.387 405.198L171.063 405.232L166.208 405.242C167.637 403.007 168.752 400.485 170.35 398.375Z"/>
	<path fill="#FEFEFE" d="M73.5899 391.217L83.0772 391.217L98.3131 414.916L87.9373 414.968C87.4007 413.946 86.731 412.213 85.9541 411.412C85.6573 411.107 83.5858 411.21 83.0525 411.194C79.0792 411.195 74.5873 410.766 70.6789 411.295L68.7484 414.979L58.43 414.926L73.5899 391.217Z"/>
	<path d="M78.35 398.375C78.8955 398.631 79.3307 399.722 79.6176 400.251L82.3858 405.198L79.0625 405.232L74.2081 405.242C75.6366 403.008 76.7513 400.484 78.35 398.375Z"/>
	<path fill="#FEFEFE" d="M39.5494 390.843C43.5752 390.404 48.8086 390.595 52.4088 392.576C55.0026 394.003 56.2123 395.993 57.0137 398.718C56.3479 398.988 55.1648 398.827 54.4361 398.827L46.4008 398.657L45.6844 398.176C44.3141 397.277 42.8268 397.01 41.2086 397.405C40.2429 397.64 39.5884 398.02 39.0853 398.875L39.3179 399.418C43.3126 400.11 47.4475 399.919 51.375 400.995C52.2347 401.231 53.0381 401.465 53.8279 401.886C54.8555 402.434 56.375 403.31 56.7098 404.468L56.7863 404.75C57.0921 405.695 57.4319 406.328 57.1202 407.325L57.0194 407.625C56.637 408.872 56.247 409.98 55.4645 411.047C53.171 414.174 49.424 414.973 45.8091 415.453C43.5285 415.598 40.8862 415.683 38.6276 415.339L38.25 415.276C36.9317 415.069 35.6158 414.779 34.3672 414.296C30.9307 412.968 29.5716 410.665 28.2038 407.475L38.9388 407.509L39.1618 407.665C40.723 408.737 42.0823 409.382 44.0261 408.929C44.9979 408.702 45.9663 408.121 46.4646 407.25C46.3514 407.075 46.3005 406.838 46.125 406.726C45.5875 406.383 43.3911 406.356 42.7292 406.302C39.215 406.014 34.1528 405.969 31.1041 404.141C29.7676 403.339 28.7253 402.259 28.4049 400.699C28.0156 398.803 28.8724 396.769 29.9622 395.25C32.2458 392.067 35.9195 391.341 39.5494 390.843Z"/>
	<path fill="#FEFEFE" d="M258.207 391.236L270.145 391.228L283.519 407.107L283.469 391.232L293.504 391.23L293.506 414.973L281.49 414.961L268.192 398.946L268.226 414.975L258.208 414.987L258.207 391.236Z"/>
	<path fill="#FEFEFE" d="M116.43 391.224L130.899 391.229C134.052 391.24 137.472 391.057 140.562 391.722C143.367 392.325 146.35 393.209 147.962 395.792C149.021 397.488 149.086 400.81 148.417 402.677C147.684 404.724 146.103 405.644 144.268 406.517L145.804 407.431C148.081 409.167 148.283 412.271 148.764 414.904L146.312 414.99L139.184 414.966C138.556 413.099 138.334 410.886 136.869 409.443C134.884 407.487 129.156 408.215 126.506 408.218L126.483 414.967L116.401 414.987L116.43 391.224Z"/>
	<path d="M126.527 397.105C130.079 397.318 134.905 396.516 138.125 398.074C138.6 398.64 138.825 399.129 138.758 399.875C138.691 400.63 138.394 400.875 137.865 401.375C134.534 402.771 130.057 402.264 126.476 402.257L126.527 397.105Z"/>
	<path fill="#FEFEFE" d="M336.793 391.249L351.333 391.228C354.77 391.241 358.43 391.065 361.79 391.857C364.299 392.449 367.086 393.402 368.433 395.787C369.471 397.624 369.738 399.834 369.146 401.857C368.634 403.607 367.675 404.973 366.041 405.85C365.62 406.076 365.371 406.242 365.062 406.625C368.665 408.817 368.059 410.72 369.166 414.226L369.255 414.5L369 414.928L367.151 414.987L359.804 414.955C359.011 413.24 358.812 410.872 357.445 409.488C355.471 407.49 349.546 408.231 346.941 408.237L346.916 414.975L336.815 414.984L336.793 391.249Z"/>
	<path d="M346.961 397.171L354.063 397.24C355.424 397.269 357.336 397.259 358.5 398.049C359.056 398.426 359.347 399.081 359.34 399.75C359.332 400.569 358.971 400.861 358.375 401.324C355.452 402.886 350.275 402.262 346.963 402.251L346.961 397.171Z"/>
	<path fill="#FEFEFE" d="M385.615 390.844C390.303 390.34 396.777 390.736 400.697 393.579C403.219 395.409 404.962 398.125 405.365 401.24C405.79 404.53 405.053 408.027 402.933 410.63C400.228 413.951 396.14 414.918 392.093 415.405C387.313 415.885 381.061 415.58 376.955 412.844C374.631 411.296 372.824 408.723 372.375 405.954C371.809 402.463 372.142 398.784 374.314 395.889C377.036 392.26 381.39 391.4 385.615 390.844Z"/>
	<path d="M386.841 397.305C388.509 397.214 390.325 397.078 391.906 397.71C393.37 398.294 394.46 399.487 395.01 400.955C395.612 402.559 395.508 404.339 394.747 405.875C393.905 407.573 392.618 408.24 390.931 408.862C389.045 409.133 386.873 409.263 385.131 408.317C383.957 407.679 383.013 406.718 382.568 405.44C382.008 403.834 381.977 401.773 382.779 400.25C383.687 398.529 385.052 397.851 386.841 397.305Z"/>
	<path fill="#FEFEFE" d="M298.8 391.247L314.561 391.237C319.9 391.268 326.799 391.3 330.725 395.519C332.875 397.83 333.03 400.971 332.926 403.989C332.805 407.509 332.198 409.366 329.613 411.783C324.266 415.348 317.233 414.965 311.06 414.979L298.816 414.985L298.8 391.247Z"/>
	<path d="M308.959 397.161C312.779 397.227 318.602 396.432 321.501 399.343C322.502 400.348 322.709 401.787 322.688 403.176C322.66 405.06 322.33 406.158 320.938 407.486C320.122 407.972 319.399 408.282 318.471 408.498L318.05 408.593C315.183 409.271 311.894 409.2 308.965 409.075L308.959 397.161Z"/>
	<path fill="#FEFEFE" d="M243.295 143.363L243.414 143.331C246.413 142.974 249.853 143.151 252.893 143.185C273.235 143.413 292.914 149.661 310.175 160.324C314.835 163.202 319.475 166.33 323.627 169.914C340.968 184.885 353.6 204.868 359.599 226.972C361.278 233.156 362.582 239.466 363.027 245.87C363.704 255.595 363.631 265.895 362.09 275.523C358.864 295.688 349.641 315.266 336.215 330.64C316.061 353.718 288.11 367.618 257.562 369.695L255.346 369.812C232.54 370.938 209.947 365.091 190.524 353.035C183.721 348.812 177.496 343.787 171.588 338.397C165.927 333.231 160.953 326.902 156.665 320.582C145.317 303.857 137.995 284.015 137.054 263.723C136.723 256.598 136.664 249.127 137.596 242.043C140.574 219.428 150.578 197.535 166 180.707C185.644 159.272 214.011 144.647 243.295 143.363ZM278.739 305.813L279.582 317.37L283.718 316.592C285.088 316.397 286.921 316.288 288.125 315.584C288.955 314.911 289.465 314.178 290.093 313.328L278.739 305.813Z"/>
	<path d="M176.706 248.157L180.245 249.946L179.018 253.2L178.759 253.771L178.375 253.767C178.072 251.858 177.345 249.975 176.706 248.157Z"/>
	<path d="M169.346 205.625C169.621 205.669 169.463 205.616 169.776 205.875C169.406 207.719 169.497 209.692 169.471 211.57C168.972 211.98 168.421 212.307 167.875 212.65C167.333 212.631 167.554 212.734 167.197 212.375L169.346 205.625Z"/>
	<path d="M332.703 300.375C332.886 300.437 333.064 300.54 333.238 300.625L330.892 307.999C330.434 306.399 330.497 303.014 330.883 301.365L332.703 300.375Z"/>
	<path d="M321.272 259.625L321.815 259.631C322.283 260.905 323.46 263.475 323.426 264.694L322.766 264.625L320.137 263.379L321.272 259.625Z"/>
	<path d="M144.59 221.625L144.894 221.762L144.284 228.087C144.113 230.624 144.339 234.229 142.917 236.375L142.659 236.381C141.894 234.93 143.998 223.882 144.59 221.625Z"/>
	<path d="M215.509 318.581L221.267 319.585L221.223 324.388C219.116 322.761 217.326 320.525 215.509 318.581Z"/>
	<path d="M279.303 188.84L284.547 194.62L278.962 193.949C278.943 192.207 279.065 190.565 279.303 188.84Z"/>
	<path d="M357.208 276.375C357.398 276.43 357.586 276.54 357.764 276.625C357.781 282.033 356.972 287.539 355.341 292.695C355.218 290.25 355.827 287.673 356.083 285.244C356.391 282.328 355.991 279.107 357.208 276.375Z"/>
	<path d="M323.449 246.125L323.762 246.508L321.772 253.375L321.375 253.417L321.08 252.695L319.204 248.378L323.449 246.125Z"/>
	<path d="M178.623 259.375C178.776 259.473 178.926 259.612 179.068 259.727L180.966 264.568C180.638 265.156 179.034 265.815 178.395 266.176L176.75 266.966L176.537 266.625L178.623 259.375Z"/>
	<path d="M263.966 275.375L264.416 275.404L264.375 275.761L256.39 281.875L255.823 281.375L254.047 279.44C257.105 278.339 260.752 277.245 263.559 275.619L263.966 275.375Z"/>
	<path d="M243.735 231.375L244.475 231.375L246.184 233.779L237.484 237.252C236.977 237.481 236.587 237.601 236.035 237.666L236.039 237.375L243.735 231.375Z"/>
	<path d="M266.224 146.375C268.417 146.326 270.666 147.118 272.75 147.743C276.507 148.869 280.092 150.111 283.625 151.829L283.625 152.408C283.034 152.354 282.417 152.283 281.829 152.379C281.207 152.479 280.921 152.536 280.302 152.271L280.072 152.169L273.588 149.226C271.242 148.27 268.405 147.594 266.224 146.375Z"/>
	<path d="M284.439 318.075C284.98 317.954 285.328 317.899 285.875 318.009L285.932 318.375L280.495 324.336C280.356 324.584 279.968 324.846 279.75 325.035C279.16 324.17 279.688 320.017 279.704 318.786L284.439 318.075Z"/>
	<path d="M220.145 188.375L220.71 188.512C220.728 189.953 221.178 193.194 220.617 194.398C218.782 194.64 216.926 194.885 215.142 195.39L214.875 195.468L214.365 195.354L214.292 194.875L220.145 188.375Z"/>
	<path d="M219.454 360.661C220.71 360.925 222.104 361.78 223.277 362.332C226.265 363.737 230.142 365.699 233.418 366.212C233.937 366.293 234.195 366.279 234.619 366.625C233.525 366.791 232.4 366.554 231.31 366.411C225.604 365.281 220.613 362.799 215.222 360.821L219.454 360.661Z"/>
	<path d="M177.277 332.105L190.173 345.594L186.143 343.921C185.048 343.428 183.732 342.885 182.845 342.064C181.929 341.216 181.356 339.94 180.727 338.875C179.428 336.674 178.189 334.505 177.277 332.105Z"/>
	<path d="M310.567 168.125C311.5 168.009 312.083 168.36 312.906 168.733C314.228 169.334 315.822 169.939 316.975 170.837C318.296 171.866 319.244 173.629 320.054 175.058C321.216 177.108 322.322 179.147 323.147 181.358L310.567 168.125Z"/>
	<path d="M320.834 172.928L325.252 176.388C326.98 177.718 328.603 179.165 330.211 180.636C330.421 180.828 331.179 181.389 331.285 181.625C331.379 181.833 331.345 182.078 331.375 182.305C329.454 182.21 327.416 182.489 325.499 182.634C324.322 179.307 322.65 175.948 320.834 172.928Z"/>
	<path d="M173.881 330.611C174.188 330.52 174.447 330.588 174.761 330.625C175.429 331.952 175.859 333.416 176.447 334.785C177.24 336.633 178.2 338.392 179.217 340.125L175.659 337.476L168.454 331.078L173.881 330.611Z"/>
	<path d="M143.507 264.758C144.372 269.002 145.398 273.201 146.758 277.316C147.284 278.907 148.704 281.647 148.675 283.21L148.125 282.996L145.164 278.579C144.254 277.17 142.179 274.27 142.558 272.554C142.79 271.505 142.713 270.442 142.788 269.375C142.898 267.828 143.21 266.279 143.507 264.758Z"/>
	<path d="M356.264 256.875L356.714 256.922C357.273 260.185 357.516 263.333 357.754 266.625C357.867 268.197 358.167 269.796 357.914 271.375C357.714 272.627 356.962 273.951 356.423 275.101L354.605 259.506C355.286 258.759 355.719 258.087 356.137 257.163L356.264 256.875Z"/>
	<path d="M335.336 202.125L335.853 202.066L338.625 206.654C339.033 207.376 339.578 208.038 339.654 208.875C338.204 209.399 336.57 209.268 335.044 209.287C333.908 209.523 332.736 209.449 331.585 209.676L331.375 209.72L331.057 209.25C332.685 207.06 334.014 204.508 335.336 202.125Z"/>
	<path d="M168.583 303.375C168.954 303.335 168.723 303.333 169.266 303.5C169.328 304.476 165.463 310.247 164.715 311.725L163.77 309.91L163.532 309.533L160.373 304.022C162.939 303.919 165.885 304.067 168.368 303.434L168.583 303.375Z"/>
	<path d="M350.962 228.826C353.296 230.926 355.462 234.914 356.976 237.668L357.178 238.044C358.433 240.345 357.576 244.858 357.326 247.375L357.001 247.902C356.638 247.441 356.718 247.653 356.604 247.154C355.205 241.029 353.371 234.635 350.962 228.826Z"/>
	<path d="M144.181 238.27L144.85 246.305L145.704 251.762C145.765 252.251 145.997 253.19 145.842 253.659C145.534 254.587 144.492 255.759 143.949 256.625L143.63 256.52C143.55 254.353 143.057 252.204 142.801 250.053C142.568 248.093 142.585 246.158 142.468 244.195C142.428 243.528 142.156 242.297 142.286 241.679C142.498 240.669 143.631 239.172 144.181 238.27Z"/>
	<path d="M354.299 220.375L354.477 220.419C355.115 221.004 355.252 222.275 355.482 223.115C356.552 227.018 357.049 230.969 357.743 234.943L356.037 232.501L350.399 225.54C351.945 223.998 353.175 222.238 354.299 220.375Z"/>
	<path d="M142.826 279.125L143.295 279.208C145.086 282.19 147.453 284.981 149.839 287.505L147.302 290.622L145.75 292.715L145.375 292.484C145.306 291.977 145.23 291.478 145.069 290.991C143.85 287.314 143.016 282.998 142.826 279.125Z"/>
	<path d="M154.568 292.278C158.676 296.026 163.176 298.651 167.685 301.804L167.625 302.423L159.857 302.734C159.141 302.091 158.659 300.817 158.222 299.946L154.568 292.278Z"/>
	<path d="M335.623 210.644L340.89 210.415L344.519 218.125C344.995 219.077 345.698 219.991 346.019 221.004L343.552 218.928L332.633 211.32L332.844 210.875C333.758 210.703 334.695 210.689 335.623 210.644Z"/>
	<path d="M202.56 156.625L203.5 156.495L203.543 156.771C201.939 157.812 200.339 158.896 198.88 160.133C197.12 161.625 195.405 163.356 193.408 164.526C190.993 165.94 187.941 166.802 185.366 167.951L184.875 168.205L184.952 167.732C190.132 162.237 195.433 159.027 202.56 156.625Z"/>
	<path d="M315.016 345.125L315.317 345.173L315.462 345.5C310.703 351.029 304.241 354.552 297.375 356.712L296.874 356.606L296.875 356.289C300.365 354.637 302.894 351.364 306.074 349.255C308.738 347.489 312.165 346.675 315.016 345.125Z"/>
	<path d="M170.329 304.768C170.425 305.443 170.249 306.074 170.249 306.75C170.249 307.887 170.407 309.087 170.477 310.225C170.735 314.382 171.433 318.685 172.466 322.718C171.653 321.843 170.985 320.899 170.294 319.928L165.727 313.216C165.687 312.569 166.185 311.781 166.477 311.193C167.569 308.99 168.936 306.794 170.329 304.768Z"/>
	<path d="M327.813 190.29L334.668 200.475L332.332 204.866L330.236 208.171L327.813 190.29Z"/>
	<path d="M359.377 244.375L359.76 244.497L359.895 244.769C360.476 245.996 360.766 247.723 361.021 249.07C362.017 254.346 361.898 261.037 360.007 266.125L359.833 266.317L359.541 266.25C359.437 261.79 358.299 257.469 358.192 253.058C358.153 251.425 358.741 249.466 359.042 247.842C359.252 246.714 359.29 245.52 359.377 244.375Z"/>
	<path d="M140.424 246.011C140.872 247.314 140.814 248.969 140.982 250.353L141.721 256.25C141.952 257.744 142.61 259.77 142.168 261.215C141.379 263.797 141.033 266.578 140.658 269.248C139.95 267.543 139.635 265.689 139.334 263.875C138.291 257.575 138.903 252.202 140.424 246.011Z"/>
	<path d="M293.699 155.219C299.639 156.723 305.082 159.124 309.915 162.947C311.571 164.258 313.059 165.88 314.55 167.376C312.067 166.439 309.205 165.888 306.859 164.737C304.591 163.625 302.537 161.392 300.49 159.875L293.699 155.219Z"/>
	<path d="M185.728 345.694C186.927 346.216 188.13 346.748 189.385 347.121C190.73 347.521 192.237 347.788 193.476 348.46C195.44 349.524 197.196 351.311 198.968 352.679L205.505 357.233L205.534 357.625C198.629 356.481 190.026 351.121 185.728 345.694Z"/>
	<path d="M196.901 349.023C198.162 349.002 201.264 348.581 202.321 349.046C202.957 349.325 203.763 350.178 204.314 350.625L208.35 353.771C210.993 355.67 213.695 357.242 216.496 358.872C215.209 358.948 213.476 359.226 212.232 358.926C210.924 358.61 209.544 357.67 208.386 356.986C204.367 354.613 200.694 351.729 196.901 349.023Z"/>
	<path d="M283.876 154.227C285.182 154.235 286.815 154.092 288.092 154.297C289.369 154.502 291.01 155.665 292.108 156.351C296.032 158.802 299.688 161.468 303.313 164.34L297.91 164.264C293.737 160.43 288.75 157.105 283.876 154.227Z"/>
	<path d="M278.967 195.228L284.75 196.216C286.822 196.657 287.241 197.533 288.409 199.187L284.769 201.289L279.845 204.206L278.967 195.228Z"/>
	<path d="M220.338 308.889C221.05 311.597 221.153 315.028 221.31 317.84C218.923 317.667 216.558 317.349 214.253 316.701C213.28 316.103 212.605 315.064 211.899 314.181C212.637 313.478 213.683 313.006 214.563 312.49C216.43 311.396 218.354 310.329 220.107 309.06L220.338 308.889Z"/>
	<path d="M162.312 278.375C162.495 278.432 162.66 278.535 162.829 278.625L167.867 297.364L165.683 294.174L157.96 281.599L162.312 278.375Z"/>
	<path d="M332.254 215.607C336.144 220.125 339.811 226.145 342.326 231.543L340.606 232.902L337.536 235.203C336.753 228.708 334.595 221.704 332.254 215.607Z"/>
	<path d="M333.098 213.565C338.281 216.998 344.631 221.079 348.367 226.069L345.806 228.582L343.741 230.342C341.889 226.115 338.85 221.842 336.214 218.061C335.163 216.554 333.806 215.286 333.098 213.565Z"/>
	<path d="M156.578 282.895L167.334 299.53C166.278 299.011 165.339 298.367 164.372 297.703C159.883 294.634 155.68 291.417 152.093 287.303L156.578 282.895Z"/>
	<path d="M189.339 168.375C189.629 168.446 189.462 168.384 189.812 168.625C185.444 173.316 181.649 178.138 178.187 183.543C176.694 185.875 175.501 188.488 173.875 190.715L173.492 190.651L173.375 190.334C174.57 187.785 174.996 184.837 175.996 182.182C177.096 179.261 179.167 174.26 181.606 172.272C183.687 170.576 186.885 169.475 189.339 168.375Z"/>
	<path d="M278.739 305.813L290.093 313.328C289.465 314.178 288.955 314.911 288.125 315.584C286.921 316.288 285.088 316.397 283.718 316.592L279.582 317.37L278.739 305.813Z"/>
	<path d="M219.574 196.086L220.375 195.972C220.485 196.065 220.634 196.125 220.705 196.25C220.92 196.626 220.753 199.343 220.795 200C220.95 202.429 221.355 204.969 221.765 207.366L216.316 203.68L211.828 200.837C211.342 200.517 210.571 200.155 210.314 199.65C210.737 199.152 211.707 197.676 212.21 197.417C212.604 197.214 213.423 197.122 213.876 197.019C215.748 196.592 217.675 196.361 219.574 196.086Z"/>
	<path d="M326.344 322.375L326.602 322.412L326.806 322.75C326.32 325.659 325.24 328.892 324.183 331.638C323.375 333.736 322.238 335.772 321.098 337.704C320.35 338.971 319.632 340.327 318.416 341.209C316.329 342.724 313.482 343.762 311.125 344.827L310.933 344.8L310.731 344.5C316.862 338.27 322.356 330.161 326.344 322.375Z"/>
	<path d="M315.219 187.125L315.753 187.054C317.888 188.22 324.838 202.303 326.262 205.376C325.136 204.408 324.22 203.308 323.27 202.173L309.443 189.476L315.219 187.125Z"/>
	<path d="M174.332 308.375C175.3 308.375 176.802 310.575 177.549 311.375C181.585 315.7 186.133 319.641 190.716 323.375C190.407 323.912 189.944 324.031 189.4 324.249C187.883 324.899 185.938 325.901 184.325 326.167L174.332 308.375Z"/>
	<path d="M343.152 210.625C345.478 210.366 349.315 211.25 351.305 212.455C353.02 213.495 353.403 215.802 353.847 217.616C353.332 219.388 352.493 220.711 351.479 222.233L349.596 224.737C348.343 223.067 347.528 220.166 346.632 218.201L344.247 213.152C343.837 212.301 343.255 211.581 343.152 210.625Z"/>
	<path d="M150.699 288.427L157.407 302.591L153.418 302.28L152.375 302.002C150.667 301.51 148.601 301.099 147.775 299.375C147.43 298.654 146.482 296.585 146.41 295.815C146.381 295.505 146.879 294.604 147.02 294.25C147.888 292.074 149.313 290.294 150.699 288.427Z"/>
	<path d="M323.116 184.791L323.875 184.784C325.259 186.49 325.826 188.882 326.332 190.983C327.506 195.859 328.138 200.946 328.699 205.927C327.917 204.79 327.316 203.394 326.681 202.165L317.615 186.302L323.116 184.791Z"/>
	<path d="M172.02 307.258L182.55 326.5L182.41 326.875L181.68 327.091L176.574 328.483C174.553 325.586 173.968 322.196 173.35 318.783C172.659 314.968 172.116 311.139 172.02 307.258Z"/>
	<path d="M181.489 250.569L192.137 258.443L187.09 261.164C185.598 261.967 183.77 263.393 182.187 263.823L180.268 258.625C180.088 258.162 179.451 257.021 179.437 256.576C179.427 256.269 179.894 255.368 180.026 255.002L181.489 250.569Z"/>
	<path d="M164.617 315.125C165.209 315.488 165.642 316.308 166.03 316.884L168.996 321.221C170.685 323.622 172.803 325.933 174.163 328.528L173.961 328.932L172.58 329.253C170.569 329.289 167.847 329.604 166.102 328.385C164.881 327.531 162.625 325.026 162.512 323.483C162.356 321.341 163.311 316.74 164.617 315.125Z"/>
	<path d="M317.785 249.375L318.176 249.558L320.101 254.536C320.277 255.017 320.734 255.896 320.772 256.376C320.797 256.681 320.51 257.351 320.413 257.692L318.757 262.612L317.508 261.709L314.375 259.642L308.231 254.728L317.785 249.375Z"/>
	<path d="M328.873 183.852C329.787 183.747 330.573 183.761 331.483 183.902L331.875 183.965C334.806 184.409 336.004 186.352 337.757 188.524C337.765 189.747 337.801 190.953 337.579 192.161C337.157 194.452 336.539 196.399 335.695 198.565C334.208 195.862 332.31 193.242 330.48 190.762C329.181 189.001 326.856 186.585 326.274 184.5L326.578 184.095L328.873 183.852Z"/>
	<path d="M211.082 155.055C214.855 154.744 218.938 154.877 222.691 155.358C224.292 155.564 229.957 156.285 230.887 157.5L230.375 158.505C230.125 158.665 229.908 158.895 229.625 158.983C228.638 159.29 226.502 159.027 225.406 159.048C222.162 159.113 218.918 159.21 215.691 159.561C214.991 159.388 213.349 159.767 212.595 159.873C207.664 160.565 203.08 161.916 198.249 162.936C201.961 160.098 206.407 155.903 211.082 155.055Z"/>
	<path d="M348.565 227.875L348.914 228.072C350.943 233.881 352.927 239.551 354.497 245.513C355.068 247.682 355.892 250.344 355.9 252.568C355.904 253.67 354.978 256.105 354.257 256.875C353.762 256.532 353.857 256.481 353.706 255.929C351.254 247.505 348.537 239.26 344.317 231.516L348.565 227.875Z"/>
	<path d="M146.427 255.779C146.56 256.219 146.542 256.087 146.591 256.434C147.022 259.511 148.125 262.819 149.135 265.755C151.034 271.274 153.319 276.494 156.013 281.669L152.763 284.582L151.875 285.348L151.474 285.282L147.68 274.33L144.852 263.585C144.662 262.743 144.147 261.247 144.217 260.422C144.329 259.118 145.77 257.001 146.427 255.779Z"/>
	<path d="M301.117 350.375L301.471 350.625L294.531 355.819C293.168 356.722 291.756 357.553 290.169 357.989C288.719 358.387 287.123 358.293 285.63 358.293C280.775 358.293 276.289 357.459 271.55 356.513C270.82 356.295 270.132 356.152 269.555 355.625L269.668 354.942C269.904 354.723 270.076 354.402 270.375 354.285C270.522 354.227 271.348 354.275 271.562 354.272L275.342 354.176C284.127 353.801 292.647 352.815 301.117 350.375Z"/>
	<path d="M299.504 165.924C301.301 166.058 305.021 165.901 306.402 166.977C311.205 170.718 315.863 175.66 319.838 180.263C320.549 181.086 321.934 182.372 322.241 183.375L321.438 183.782L316.74 185.253C312.092 178.352 306.091 171.061 299.504 165.924Z"/>
	<path d="M182.823 328.125L183.625 328.037C185.186 329.79 186.459 331.879 187.926 333.728C191.68 338.459 195.803 343.051 200.384 346.995C198.547 347.032 196.856 346.986 195.044 346.669C191.963 346.22 180.277 332.549 177.729 329.732L182.823 328.125Z"/>
	<path d="M330.226 215.252C331.098 217.117 331.62 219.12 332.242 221.077C333.815 226.025 335.056 231.118 336.084 236.206L329.895 240.499L326.376 242.521C329.157 233.829 329.352 224.257 330.226 215.252Z"/>
	<path d="M173.614 270.625L173.935 270.875C172.394 276.557 171.261 282.65 170.692 288.51L170.328 293.793C170.297 294.805 170.417 296.056 169.959 296.961L169.625 296.953C169.175 295.898 168.899 294.791 168.592 293.689L164.105 276.837L173.614 270.625Z"/>
	<path d="M149.547 302.875C152.483 303.499 155.337 303.806 158.328 304.013L163.725 313.387L161.557 319.307L160.744 322.394C157.526 317.262 154.159 312.537 151.407 307.085C150.739 305.763 149.812 304.329 149.547 302.875Z"/>
	<path d="M339.417 191.375L339.88 191.446C344.519 197.323 347.879 203.747 351.057 210.483L348.793 209.865C346.554 209.416 344.26 209.328 341.984 209.241C340.519 205.998 338.488 202.774 336.506 199.823C337.949 197.18 338.751 194.293 339.417 191.375Z"/>
	<path d="M345.555 313.625L345.827 313.906C340.14 324.097 332.233 332.01 322.696 338.592C324.096 335.332 325.691 332.26 326.883 328.89C327.421 327.37 327.939 325.84 328.335 324.276C328.441 323.856 328.618 322.414 328.833 322.126C328.956 321.961 329.233 322.028 329.434 321.978C335.585 320.451 340.874 317.987 345.555 313.625Z"/>
	<path d="M177.084 175.125L177.441 175.375C175.31 178.76 173.831 183.142 172.793 186.995C172.591 187.748 171.99 190.922 171.607 191.276C171.498 191.376 170.462 191.601 170.29 191.651C168.816 192.079 167.315 192.488 165.878 193.026C162.163 194.416 158.329 196.526 155.53 199.355L155.266 199.625L154.778 199.488C159.967 189.89 167.927 181.031 177.084 175.125Z"/>
	<path d="M246.37 145.375C246.826 145.333 246.571 145.316 247.125 145.51C246.601 146.149 245.034 146.533 244.232 146.894C242.658 147.602 241.1 148.468 239.658 149.413C238.18 150.383 236.703 151.441 235.438 152.682C234.524 153.58 233.62 154.778 232.625 155.558C232.613 155.567 232.25 155.8 232.163 155.793C230.976 155.701 229.446 154.975 228.238 154.702C224.673 153.894 221.043 153.381 217.392 153.247C216.144 152.916 214.707 152.936 213.417 152.841C222.037 148.985 230.28 146.337 239.744 145.598L246.37 145.375Z"/>
	<path d="M268.125 357.243C274.207 359.22 280.731 360.251 287.119 360.23C281.592 362.694 276.336 364.732 270.446 366.168C264.284 367.362 258.456 367.762 252.196 367.803C253.662 367.098 255.23 366.629 256.704 365.919C260.924 363.887 264.815 361.135 267.87 357.546L268.125 357.243Z"/>
	<path d="M174.42 305.568C179.935 307.96 185.303 310.494 191 312.469C195.654 314.081 200.515 315.296 205.294 316.481L200.6 318.953L192.571 322.863L174.42 305.568Z"/>
	<path d="M307.055 190.625L307.753 190.491C314.2 195.246 320.21 201.235 325.467 207.264L316.567 203.575L294.785 196.823L307.055 190.625Z"/>
	<path d="M192.643 259.625L193.34 259.581L200.739 267.421L190.055 278.375L189.5 279.006L189.125 278.909L182.724 265.061L192.643 259.625Z"/>
	<path d="M311.092 234.125C312.355 234.863 316.937 246.258 317.747 248.102L311.136 251.833C309.986 252.482 308.647 253.438 307.375 253.776L306.795 253.375C304.172 251.072 301.851 248.297 299.643 245.603L311.092 234.125Z"/>
	<path d="M298.676 246.609L306.158 254.556L278.69 267.743L272.639 270.442L298.676 246.609Z"/>
	<path d="M220.195 245.955L226.623 243.125L226.935 243.25C226.744 243.835 225.778 244.477 225.29 244.9L216.419 252.68L216.426 252.686L201.603 266.553L201.453 266.343C200.118 264.514 198.511 262.887 196.901 261.301C196.069 260.481 195.048 259.65 194.376 258.7L194.493 258.404L220.195 245.955Z"/>
	<path d="M251.32 163.625C252.616 163.272 254.688 164.149 256 164.484C262.262 166.084 268.335 168.176 274.316 170.629C276.999 171.73 279.564 173.199 282.315 174.117L282.565 174.197C281.143 176.981 280.063 179.701 279.159 182.693C278.798 183.757 278.633 184.864 278.432 185.966C275.82 182.796 272.52 180.088 269.375 177.459C263.599 172.629 257.87 168.254 251.398 164.375L251.32 163.625Z"/>
	<path d="M221.991 327.252C227.451 333.29 234.078 338.676 240.742 343.326C243.685 345.38 247.267 347.078 249.862 349.547C248.272 349.526 246.856 349.212 245.317 348.836C238.639 347.229 232.17 345.059 225.82 342.44L217.756 338.83C219.863 335.263 221.119 331.278 221.991 327.252Z"/>
	<path d="M277.24 330.125C277.504 330.175 277.329 330.126 277.725 330.375C277.187 333.195 276.774 335.978 275.986 338.75C274.613 343.58 272.516 347.919 269.974 352.233C268.572 352.425 266.951 352.201 265.539 352.094C262.147 351.838 258.829 351.545 255.594 350.456L252.888 349.043C258.465 345.651 263.777 341.907 268.781 337.718L277.24 330.125Z"/>
	<path d="M230.331 160.921C234.327 161.032 239.52 160.951 243.311 162.223C244.763 162.71 246.068 163.546 247.373 164.333C241.709 167.303 236.42 171.571 231.521 175.638L224.767 181.613C224.212 182.128 223.011 183.727 222.382 183.93C223.685 175.643 225.975 168.15 230.331 160.921Z"/>
	<path d="M188.298 281.875L188.93 281.875L197.651 296.735C196.262 297.255 194.694 297.463 193.25 297.82L181.212 300.424L172.128 301.984L188.298 281.875Z"/>
	<path d="M326.744 211.375L327.502 211.297L327.702 211.75L311.498 231.672L308.809 226.353L302.798 216.218L326.744 211.375Z"/>
	<path d="M325.568 267.091C329.531 268.714 334.09 269.262 338.34 269.272C338.288 272.286 337.899 275.267 337.553 278.257C336.872 284.153 335.964 289.944 334.467 295.696C334.297 296.404 334.014 297.083 333.764 297.767C332.993 298.269 331.66 299.416 330.79 299.535L330.198 291.527C329.334 283.312 327.89 275.025 325.568 267.091Z"/>
	<path d="M215.243 293.125L215.795 293.131C216.473 293.985 216.698 295.313 217.05 296.346C218.332 300.116 219.264 303.848 220.216 307.704C217.384 309.442 214.118 311.049 211.528 313.085L211.33 313.245C210.293 312.363 209.397 310.929 208.565 309.841L199.74 297.44L215.243 293.125Z"/>
	<path d="M169.328 213.625C169.937 214.022 169.719 214.998 169.74 215.717C170.025 225.703 171.975 235.981 174.517 245.625L174.25 245.951L168.345 244.559L161.9 244.017L164.607 222.656C164.981 220.807 165.292 218.859 165.855 217.058C165.966 216.704 166.176 215.858 166.394 215.608C167.014 214.896 168.509 214.168 169.328 213.625Z"/>
	<path d="M289.093 200.125L289.401 200.16C290.578 201.367 291.538 202.955 292.544 204.322L300.655 215.738L290.049 218.766L284.547 220.231C282.456 215.787 281.132 210.291 280.148 205.485L289.093 200.125Z"/>
	<path d="M223.209 210.074L243.332 230.077L243.293 230.289L238.125 234.254L231.365 239.828L227.526 228.5C225.668 222.448 224.282 216.309 223.209 210.074Z"/>
	<path d="M268.304 273.875L268.75 273.742C269.456 274.205 269.888 276.068 270.21 276.92C272.591 283.203 274.455 289.701 275.957 296.25L277.302 303.161L270.901 297.574C267.05 294.364 263.647 290.496 260.312 286.765C259.254 285.581 257.849 284.296 257.048 282.95L268.304 273.875Z"/>
	<path d="M181.045 266.125C181.25 266.149 181.478 266.242 181.677 266.302L188.102 280.446L174.858 296.117L171.751 300.323L171.657 300.26C171.862 289.571 173.983 279.572 175.881 269.12L181.045 266.125Z"/>
	<path d="M328.49 213.178C328.694 217.588 328.163 221.882 327.673 226.25C327.006 232.198 325.968 238.505 324.278 244.252L318.867 247.345C318.084 246.283 317.588 244.427 317.078 243.175L312.189 233.102L312.072 232.91L328.49 213.178Z"/>
	<path d="M293.165 197.678C295.546 198.091 297.998 198.959 300.329 199.635C307.735 201.779 314.748 204.259 321.749 207.512C323.154 208.165 325.368 208.88 326.414 210.031L326.194 210.375L320.699 211.264L302.15 215.271C300.526 212.401 298.587 209.753 296.662 207.083C294.725 204.398 292.82 201.67 290.516 199.282L293.165 197.678Z"/>
	<path d="M197.389 298.125L198.105 298.071C199.054 298.659 199.675 300.078 200.296 301.006L204.25 306.75L209.729 313.891L207.504 315.5C206.002 315.38 204.367 314.833 202.9 314.451C198.751 313.37 194.681 311.875 190.617 310.512L173.062 302.962L197.389 298.125Z"/>
	<path d="M191.759 324.625L192.361 324.627C199.113 330.534 207.68 335.62 215.711 339.545C213.635 342.152 211.379 344.027 208.39 345.516C206.673 346.203 205.036 346.678 203.233 347.097C201.939 346.62 200.474 344.881 199.489 343.91C196.393 340.857 193.407 337.769 190.63 334.417L185.119 327.304L191.759 324.625Z"/>
	<path d="M296.017 166.297L297.625 166.242C304.273 172.222 309.71 178.632 315.115 185.738L308.503 188.602C307.412 188.045 306.403 187.199 305.409 186.482C301.732 183.433 297.419 180.854 293.326 178.415C290.613 176.799 287.766 174.979 284.843 173.768L284.484 173.623C287.859 169.756 290.99 167.561 296.017 166.297Z"/>
	<path d="M328.18 302.875C328.729 302.752 328.467 302.714 328.964 303C329.036 306.072 329.198 310.155 328.458 313.125C327.78 315.846 326.267 318.492 325.012 320.979C316.805 321.618 309.024 320.158 301.325 317.302L296.715 315.383C296.745 315.339 296.76 315.278 296.806 315.249C297.394 314.88 298.909 314.704 299.625 314.502L306.905 312.224C314.164 309.796 321.589 306.794 328.18 302.875Z"/>
	<path d="M177.226 192.107C178.928 191.839 180.734 192.017 182.447 192.123C190.144 192.596 196.51 195.113 203.611 197.834C202.618 198.524 200.309 198.865 199.061 199.241L189.815 202.251L171.231 210.6C171.209 207.23 171.163 203.303 171.923 200.012C172.505 197.493 173.994 194.491 175.375 192.309L177.226 192.107Z"/>
	<path d="M159.522 245.625C159.87 245.688 159.676 245.626 160.081 245.875C159.919 248.214 160.131 250.616 160.186 252.96C160.294 257.534 160.444 262.133 161.027 266.672L161.887 272.747C162.075 273.848 162.535 275.313 162.453 276.421C162.427 276.767 157.979 280.13 157.422 280.612L155.195 275.842C153.8 272.443 152.253 269.106 151.1 265.611L147.513 253.35C148.896 252.027 150.175 250.513 151.661 249.314C154.018 247.413 156.639 246.416 159.522 245.625Z"/>
	<path d="M342.615 232.875C342.883 232.91 342.749 232.868 343.053 233.068C343.658 233.467 344.338 235.404 344.67 236.12C348.179 243.671 350.96 251.577 352.676 259.732C350.834 262.135 348.575 263.958 346.091 265.647C344.119 266.62 342.306 267.163 340.17 267.656C340.576 262.45 340.223 257.064 339.802 251.875C339.392 246.833 339.014 241.667 337.886 236.725L337.832 236.496L342.615 232.875Z"/>
	<path d="M283.406 174.794L306.658 189.52L299.526 192.992L293.32 196.477C291.872 196.065 288.005 195.857 286.955 194.967C284.323 192.738 282.436 189.526 279.748 187.255L279.485 187.036C280.379 182.768 281.522 178.743 283.406 174.794Z"/>
	<path d="M206.992 316.981C208.608 317.198 211.89 317.432 213.212 318.205C213.853 318.58 214.746 319.838 215.262 320.417C216.971 322.334 218.639 324.299 220.529 326.044L220.855 326.341C220.46 329.084 219.803 331.67 218.785 334.25C218.199 335.734 217.485 337.059 216.696 338.443L211.346 335.515L193.638 323.685L206.992 316.981Z"/>
	<path d="M163.56 217.375L163.95 217.625C162.625 224.124 161.418 230.541 160.696 237.143L160.267 244.102C156.512 245.03 153.308 246.07 150.255 248.537C149.296 249.312 148.436 250.485 147.375 251.078L147.125 250.285L145.732 235.301C150.344 228.176 156.824 222.427 163.56 217.375Z"/>
	<path d="M352.386 262.125L353.032 262.262C354.142 267.274 354.467 272.674 354.509 277.798C350.926 284.638 343.936 290.251 337.858 294.78L336.695 295.625L336.341 295.452C337.638 289.843 338.786 284.176 339.369 278.442L339.99 268.818L340.325 268.802C344.582 268.511 349.514 265.666 352.167 262.4L352.386 262.125Z"/>
	<path d="M335.804 237.875L336.426 237.775C338.473 247.398 338.976 257.842 338.647 267.658C334.724 268.465 330.565 267.501 326.813 266.314C326.301 266.118 325.784 265.93 325.389 265.534C324.501 264.644 323.88 260.821 323.45 259.533C323.215 258.827 322.398 257.152 322.531 256.444C322.75 255.276 323.38 254.047 323.72 252.885L325.473 246.5C325.628 245.945 325.769 244.886 326.046 244.415C326.202 244.149 334.6 238.737 335.804 237.875Z"/>
	<path d="M248.594 351.504C251.44 351.978 254.636 352.377 257.375 353.258C260.411 354.235 263.36 355.688 266.382 356.769C261.396 361.899 255.056 365.73 247.884 366.795L247.512 366.848C245.647 367.124 244.034 366.776 242.189 366.536C238.145 365.665 234.062 364.683 230.169 363.268L223.213 360.385C232.195 358.576 240.588 356.132 248.594 351.504Z"/>
	<path d="M161.75 245.226C163.805 245.222 165.955 245.107 167.988 245.418L168.375 245.483C170.678 245.856 172.809 246.597 175.003 247.366L177.85 256.284L177.979 256.584C177.346 258.543 174.948 268.227 174.232 268.967C173.895 269.316 173.074 269.699 172.645 269.971L163.905 275.788L162.637 266.555C161.887 259.356 161.616 252.464 161.75 245.226Z"/>
	<path d="M252.767 280.125C253.976 280.388 254.729 281.784 255.516 282.733C251.415 286.276 246.873 289.458 242.464 292.611L226.095 303.898C224.937 304.642 222.625 306.551 221.329 306.67L221.005 305.625C219.813 301.116 218.647 296.854 217.056 292.452C219.712 291.903 222.43 290.888 225.015 290.051L243.477 283.586C246.565 282.448 249.618 281.073 252.767 280.125Z"/>
	<path d="M250.173 232.323L247.167 233.177L244.881 230.468L278.748 206.276L279.042 206.037L283.42 220.771L267.025 226.052L250.173 232.323Z"/>
	<path d="M252.241 146.33C260.929 145.158 269.55 150.229 277.583 152.624C270.41 154.186 263.916 156.044 257.187 159.088L253.157 160.914C252.821 161.069 251.953 161.607 251.615 161.628C250.733 161.682 249.296 161.209 248.407 161.025C246.505 160.63 244.599 160.4 242.75 159.777C239.745 158.765 237.035 157.23 233.922 156.469C237.981 151.22 245.74 147.326 252.241 146.33Z"/>
	<path d="M278.255 154.589L278.339 154.57C278.863 154.54 279.884 154.415 280.375 154.52C281.013 154.656 282.148 155.485 282.732 155.824C287.366 158.511 291.407 161.736 295.824 164.696C290.506 166.07 286.865 168.855 283.47 173.072L275.678 169.497C268.631 166.761 261.443 164.033 254.038 162.434C255.854 161.279 257.96 160.467 259.934 159.625C265.881 157.088 271.85 155.473 278.255 154.589Z"/>
	<path d="M216.771 340.164C222.415 343.485 229.324 345.883 235.546 347.905C239.066 349.048 242.749 350.311 246.409 350.865C241.833 353.33 236.916 355.235 231.948 356.742C228.296 357.746 223.999 358.921 220.179 358.961C219.531 358.968 218.331 358.08 217.75 357.746C213.083 355.063 208.47 352.127 204.415 348.569C209.414 347.093 213.465 344.804 216.553 340.473L216.771 340.164Z"/>
	<path d="M201.563 268.625C202.314 268.948 203.211 270.535 203.726 271.249C208.449 277.8 212.098 284.588 215.489 291.898L203.197 295.48L199.185 296.582L189.833 280.426C189.987 280.189 190.13 280.022 190.35 279.843C194.376 276.569 197.358 271.67 201.563 268.625Z"/>
	<path d="M300.911 216.875L301.53 216.885C303.009 218.762 304.233 221.245 305.402 223.337L310.708 232.638L298.998 244.835L296.959 242.176C292.044 235.813 288.553 228.749 285.139 221.521C286.481 220.655 288.727 220.304 290.293 219.864L300.911 216.875Z"/>
	<path d="M170.519 193.125C170.786 193.201 170.605 193.14 171.036 193.375C170.875 195.196 170.694 197.15 170.152 198.897L170.038 199.25C169.218 201.841 168.041 204.318 167.141 206.885C166.55 208.569 165.584 213.982 164.23 214.994C159.076 218.844 154.163 222.405 149.781 227.207C148.567 228.537 147.624 230.021 146.465 231.375L146.031 231.125C146.36 225.289 147.176 219.773 148.696 214.125C149.388 211.554 150.196 208.694 151.571 206.398C155.463 199.897 163.216 194.846 170.519 193.125Z"/>
	<path d="M354.349 281.625L354.756 281.875C354.42 283.823 354.45 285.861 354.209 287.837C353.739 291.692 352.924 295.443 351.909 299.188C351.241 301.653 350.552 304.312 349.243 306.523C348.266 308.174 346.814 309.597 345.465 310.945C341.055 315.352 335.966 318.501 329.875 319.983L329.388 319.786L329.346 319.585C329.186 318.165 329.966 315.68 330.36 314.299C331.054 311.869 332.183 309.556 333.017 307.169L335.19 300.38C335.352 299.91 335.547 298.945 335.823 298.559C336.099 298.173 337.006 297.7 337.427 297.4L341.36 294.506C345.912 290.984 350.89 286.611 354.174 281.882L354.349 281.625Z"/>
	<path d="M246.415 234.875L247.125 234.98C252.464 241.942 257.169 249.592 261.305 257.32C263.894 262.158 266.492 267.221 268.354 272.389C266.821 273.298 264.786 273.964 263.125 274.646L253.416 278.437L245.762 267.357C240.338 258.761 236.058 249.994 231.852 240.778C233.97 240.257 236.103 239.125 238.107 238.257L246.415 234.875Z"/>
	<path d="M319.312 264.324L323.858 266.458C326.698 277.739 328.502 288.873 328.746 300.53C319.706 305.867 310.047 309.789 299.974 312.719L294.21 314.332L292.102 312.869C294.511 310.119 296.609 306.958 298.675 303.941C304.057 296.082 308.689 287.827 312.94 279.316C315.304 274.583 317.9 269.424 319.312 264.324Z"/>
	<path d="M205.571 199.056C206.531 199.094 206.983 199.456 207.742 200.014C207.786 200.2 207.909 200.385 207.875 200.573C207.83 200.824 206.797 201.969 206.586 202.25L202.356 208.101C193.529 220.88 186.633 234.335 180.787 248.714L180.529 248.707C179.475 248.37 177.003 247.16 176.352 246.375C175.625 244.094 175.223 241.753 174.706 239.42C173.309 233.121 172.28 226.897 171.671 220.468L171.22 212.732C171.995 211.866 173.679 211.235 174.734 210.678C184.398 205.57 194.946 201.626 205.571 199.056Z"/>
	<path d="M277.584 319.372L278.007 319.243L278.447 319.5L278.257 327.023C269.811 334.869 261.424 342.328 251.474 348.257C245.164 345.41 238.945 340.566 233.652 336.122L222.19 325.686L222.582 319.773C224.43 319.813 226.315 320.209 228.164 320.366L244.875 321.425C255.847 321.781 266.695 320.411 277.584 319.372Z"/>
	<path d="M249.039 165.222C250.849 165.995 252.702 167.398 254.373 168.453C263.137 173.987 270.491 180.475 278.05 187.529C278.043 188.026 278.048 188.529 277.962 189.021C277.702 190.519 277.755 192.085 277.733 193.605C276.796 193.791 275.33 193.474 274.37 193.374L266.059 192.551L250.621 192.104L221.748 194.362L222.047 186.78C223.008 185.195 224.988 183.614 226.354 182.342C233.246 175.92 240.793 169.823 249.039 165.222Z"/>
	<path d="M222.588 160.853C224.267 160.615 227.032 160.443 228.673 160.779C224.392 168.661 222.14 176.26 221.11 185.169L216.34 190.394C214.912 192.024 213.289 194.493 211.558 195.73C210.423 196.541 208.551 196.723 207.208 197.057C206.874 197.14 205.999 197.474 205.73 197.434C205.247 197.361 204.494 196.908 204.021 196.695L199.908 194.85C196.571 193.473 192.82 192.256 189.265 191.62L188.968 191.569C184.586 190.76 180.561 190.526 176.11 190.488C177.487 188.499 178.531 186.319 179.83 184.282C182.437 180.191 185.322 176.303 188.467 172.611C190.23 170.541 192.637 167.56 194.978 166.187C196.275 165.425 197.99 165.076 199.434 164.649C207.091 162.381 214.664 161.479 222.588 160.853Z"/>
	<path d="M294.422 315.796C295.174 315.777 296.082 316.397 296.781 316.712L302.108 318.953C307.252 320.925 312.861 322.158 318.351 322.531C320.093 322.65 322.043 322.859 323.775 322.625L324.238 322.554L320.274 329.25C317.296 333.886 313.941 338.341 310.215 342.403C308.816 343.928 307.281 345.73 305.502 346.81C303.646 347.937 301.258 348.483 299.189 349.08C293.285 350.466 287.526 351.553 281.48 352.131C278.256 352.44 274.887 352.385 271.64 352.515C274.194 347.704 276.485 342.809 277.668 337.46L278.619 331.97C278.804 330.516 278.852 328.701 279.68 327.459C280.709 325.914 282.456 324.537 283.713 323.125L287.428 318.775C287.841 318.307 288.35 317.557 288.89 317.259C290.306 316.479 292.823 316.181 294.422 315.796Z"/>
	<path d="M267.526 227.147L283.881 221.844C286.118 227.773 289.264 233.368 292.72 238.666C294.274 241.047 295.978 243.677 297.984 245.691L269.271 271.839C264.361 258.629 256.487 245.469 247.9 234.309L250.936 233.207L267.526 227.147Z"/>
	<path d="M226.058 245.746L230.968 241.534C232.964 244.622 234.185 248.637 235.821 251.968C239.042 258.53 242.803 264.963 246.889 271.025L251.731 277.917C251.934 278.205 252.309 278.551 252.27 278.907L216.465 291.431C214.534 286.898 212.49 282.511 209.934 278.284C207.61 274.44 204.966 270.947 202.337 267.314L217.189 253.57C217.805 253.322 218.827 252.124 219.397 251.621C221.611 249.664 223.944 247.811 226.058 245.746Z"/>
	<path d="M256.167 283.636C262.187 291.338 269.534 298.703 277.322 304.612L278.302 317.538L243.478 319.758L222.543 318.162L221.412 308.018C224.325 306.769 227.191 304.521 229.841 302.749L256.167 283.636Z"/>
	<path d="M241.555 193.606C244.546 193.304 247.693 193.478 250.707 193.473L269.935 194.26C272.513 194.481 275.146 194.568 277.69 195.059L278.869 204.977L253.193 222.696L244.454 229.498C241.861 227.697 239.62 224.057 237.367 221.749C232.765 217.037 227.975 212.69 222.894 208.5L221.925 195.611L241.555 193.606Z"/>
	<path d="M193.682 257.675C193.037 257.692 191.805 256.441 191.266 255.995C189.51 254.542 187.727 253.161 185.844 251.875C184.646 251.056 183.344 250.39 182.064 249.708C184.915 243.479 187.283 237.137 190.41 231.009C193.898 224.173 197.85 217.505 202.143 211.146L209.479 200.846C212.992 202.853 216.301 205.033 219.616 207.353C220.169 207.739 221.456 208.367 221.838 208.853C222.008 209.069 222.128 210.069 222.185 210.341L223.111 215.446L224.936 223.382C226.304 228.817 228.147 234.885 230.521 239.967L230.615 240.165L219.281 245.183L193.682 257.675Z"/>
	<path d="M306.389 255.625C306.634 255.587 306.883 255.459 307.126 255.512C307.599 255.614 309.84 257.842 310.381 258.277C312.853 260.261 315.462 261.937 318.146 263.612C317.714 266.237 316.029 269.405 314.939 271.848C308.463 286.359 300.428 299.811 290.766 312.426L285.296 309.027L280.251 305.452C279.795 305.128 278.752 304.58 278.431 304.17C278.332 304.044 278.263 302.968 278.221 302.75L276.889 295.814C275.113 288.108 272.962 280.248 269.793 272.985L306.389 255.625Z"/>
</svg>
