<?xml version="1.0" encoding="utf-8"?>
<!-- Generator: Adobe Illustrator 19.2.1, SVG Export Plug-In . SVG Version: 6.00 Build 0)  -->
<svg version="1.1" id="layer" xmlns="http://www.w3.org/2000/svg" xmlns:xlink="http://www.w3.org/1999/xlink" x="0px" y="0px"
	 viewBox="0 0 652 652" style="enable-background:new 0 0 652 652;" xml:space="preserve">
<style type="text/css">
	.st0{fill:#132E57;}
</style>
<path class="st0" d="M432.1,282.2c-10.5,0-18.6,3.9-24.3,11.8c-5.7,7.8-8.6,18.6-8.6,32.6c0,29,11,43.5,33,43.5
	c9.2,0,20.4-2.3,33.5-6.9v23.1c-10.8,4.5-22.8,6.7-36.1,6.7c-19.1,0-33.7-5.7-43.8-17.2c-10.1-11.5-15.2-28-15.2-49.5
	c0-13.5,2.5-25.4,7.5-35.5c5-10.2,12.1-18,21.4-23.4c9.3-5.5,20.3-8.2,32.8-8.2c12.8,0,25.6,3.1,38.5,9.2l-9,22.4
	c-4.8-2.3-9.8-4.3-14.8-6.1C442.1,283.1,437.1,282.2,432.1,282.2z M521.1,391.3h-27.4V261.1H569v22.6h-47.9v33.6h44.6v22.5h-44.6
	L521.1,391.3L521.1,391.3z M594.6,391.3V261.1h27.9v130.2H594.6z M340.6,268.4c2.6-4.9,3.9-10.3,3.9-15.8
	c0-18.9-15.4-34.2-34.5-34.2c-13.3,0-25.5,7.6-31.2,19.7l-68.3,135.3c-2.6,4.9-4,10.4-4,16c0,18.9,15.4,34.2,34.5,34.2
	c13.7,0,25.6-7.9,31.1-19.5L340.6,268.4L340.6,268.4z M237.1,291.2c2.6-4.9,3.9-10.3,3.9-15.8c0-18.9-15.4-34.2-34.5-34.2
	c-13.3,0-25.5,7.6-31.2,19.7l-56.8,112.5c-2.6,4.9-4,10.4-4,16c0,18.9,15.5,34.2,34.5,34.2c13.7,0,25.6-7.9,31.1-19.5
	C180.1,404.1,237.1,291.2,237.1,291.2z M133.6,314c2.6-4.9,3.9-10.3,3.9-15.8c0-18.9-15.4-34.2-34.5-34.2
	c-13.3,0-25.5,7.6-31.2,19.7l-45.3,89.7c-2.6,4.9-4,10.4-4,16c0,18.9,15.4,34.2,34.5,34.2c13.7,0,25.6-7.9,31.1-19.5L133.6,314
	L133.6,314z"/>
</svg>
